# xmcd
#
# Track frame offsets:
#	150
#	9439
#	21195
#	37586
#	49203
#	61436
#	74736
#	96294
#	110916
#	129623
#	143556
#	157151
#	169925
#	184388
#	203426
#	215164
#	234888
#	249339
#	263511
#	275482
#	285497
#	300868
#	303716
#
# Disc length: 4250 seconds
#
# Revision: 0
# Processed by: cddbd v1.4PL0 Copyright (c) Steve Scherf et al.
# Submitted via: dBpowerAMP V4.0
#
DISCID=4c109817
DTITLE=Various Artist - Romantic Collection
DYEAR=1900
DGENRE=
TTITLE0=The Beatles - Yesterday
TTITLE1=The Platters - Only You
TTITLE2=Louis Armstrong - Go Down Moses
TTITLE3=Frank Sinatra - Strangers in the Night
TTITLE4=Glenn Millers Orchestra - Moonlight Serenade
TTITLE5=The Doors - Spanish Caravan
TTITLE6=Black - Wonderful Life
TTITLE7=The Smokey - I'll meet You at Midnight
TTITLE8=Gary Moore - Still Got the Blues
TTITLE9=Simon and Garfunkel - El Condor Pasa
TTITLE10=Richard Clayderman - Theme from 'Love Story'
TTITLE11=Joe Dassin - A Toi
TTITLE12=Kate Bush - Army Dreams
TTITLE13=Julio Iglesias - Manmy Blue
TTITLE14=Paul Mauriat - Love is Blue
TTITLE15=Boy George - Do You really want to hurt me..
TTITLE16=Lion Ritchie - Lady
TTITLE17=Overkill - Girl You'll be a woman soon..
TTITLE18=Nino Rota - Love Theme GodFather
TTITLE19=Richard Nelson - Love some town
TTITLE20=Cretu - Your Favourite Toy
TTITLE21= 
TTITLE22=The Royal Philarmonic Orchestra - Yesterday
EXTD=
EXTT0=
EXTT1=
EXTT2=
EXTT3=
EXTT4=
EXTT5=
EXTT6=
EXTT7=
EXTT8=
EXTT9=
EXTT10=
EXTT11=
EXTT12=
EXTT13=
EXTT14=
EXTT15=
EXTT16=
EXTT17=
EXTT18=
EXTT19=
EXTT20=
EXTT21=
EXTT22=
PLAYORDER=
